<?xml version="1.0" encoding="UTF-8" standalone="no"?>
<!-- Created with Inkscape (http://www.inkscape.org/) -->

<svg
   version="1.1"
   id="svg2"
   width="1536"
   height="1536"
   viewBox="0 0 1536 1536"
   xmlns="http://www.w3.org/2000/svg"
   xmlns:svg="http://www.w3.org/2000/svg">
  <defs
     id="defs6" />
  <g
     id="g8"
     style="display:inline">
    <g
       id="g138"
       style="display:inline">
      <rect
         style="fill:#ffffff;fill-opacity:1;stroke:#a6a6a6;stroke-width:1.00157;stroke-linecap:round;stroke-linejoin:round;paint-order:stroke fill markers"
         id="rect194"
         width="396.39484"
         height="310.06448"
         x="584.84521"
         y="351.06598" />
      <path
         style="display:inline;fill:#009fdb;stroke-width:0.96"
         d="m 742.08,1445.6796 c -142.07878,-4.6842 -279.19119,-54.6764 -391.68,-142.8093 -47.8449,-37.4856 -95.35787,-86.6907 -129.88188,-134.5078 l -7.24706,-10.0373 3.86296,-4.8427 c 2.12463,-2.6633 110.3931,-138.6545 240.59659,-302.2025 L 694.46425,553.92 h 73.49171 73.49172 l 238.73352,302.12575 238.7337,302.12575 -4.4145,6.2742 c -33.299,47.3275 -84.1458,100.3516 -132.7404,138.4246 -125.4404,98.2803 -278.86008,148.1114 -439.68,142.8093 z"
         id="path148" />
      <path
         style="display:inline;fill:#000000;stroke-width:0.96"
         d="M 209.88167,1153.6697 C 171.54379,1098.8001 137.41345,1026.6104 118.07665,959.49146 92.577342,870.9822 85.450728,775.62213 97.452269,683.52 114.64494,551.58018 169.92878,429.48242 258.71564,327.36 272.13211,311.9284 306.1684,277.89211 321.6,264.47564 423.72242,175.68878 545.82018,120.40494 677.76,103.21227 c 57.54798,-7.498899 119.09202,-7.498899 176.64,0 131.90074,17.18757 254.0678,72.50282 356.16,161.26337 15.4316,13.41647 49.4679,47.45276 62.8843,62.88436 81.6814,93.94973 134.8732,204.44143 156.4389,324.96 11.8727,66.34963 13.6692,136.80372 5.2261,204.96 -10.7792,87.01514 -39.8136,173.4882 -84.1287,250.56 -8.234,14.3205 -23.2207,38.1706 -28.9882,46.1324 l -2.7723,3.8271 L 1081.05,856.39337 842.88,554.98733 V 480.05366 405.12 H 768 693.12 v 74.87452 74.87453 L 454.92743,854.15452 c -131.00592,164.60698 -239.11392,300.22538 -240.24,301.37428 l -2.04743,2.0886 z"
         id="path140" />
    </g>
  </g>
</svg>
